# xmcd
# 
# Track frame offsets:
#     150
#     24367
#     45680
#     69897
# 
# Disc length: 1210
# 
# Revision: 0
# Processed by: cddbd v1.5.2PL0 Copyright (c) Steve Scherf et al.
# Submitted via: fre:ac v1.0.31
# 
DISCID=2704b804
DTITLE=安野希世乃 - ロケットビート
DYEAR=2018
DGENRE=Remix
TTITLE0=ロケットビート
TTITLE1=逢いたくて
TTITLE2=ロケットビート　インストルメンタル
TTITLE3=逢いたくて　インストルメンタル
EXTD=
EXTT0=
EXTT1=
EXTT2=
EXTT3=
PLAYORDER=
